<svg width="100" height="100" viewBox="0 0 100 100" fill="none" xmlns="http://www.w3.org/2000/svg">
<g clip-path="url(#clip0_1392_56)">
<path opacity="0.5" d="M66.6666 20.8334H33.3333C21.5499 20.8334 15.6541 20.8334 11.9958 24.4959C8.33325 28.1542 8.33325 34.05 8.33325 45.8334V54.1667C8.33325 65.95 8.33325 71.8459 11.9958 75.5042C15.6541 79.1667 21.5499 79.1667 33.3333 79.1667H66.6666C78.4499 79.1667 84.3458 79.1667 88.0041 75.5042C91.6666 71.8459 91.6666 65.95 91.6666 54.1667V45.8334C91.6666 34.05 91.6666 28.1542 88.0041 24.4959C84.3458 20.8334 78.4499 20.8334 66.6666 20.8334Z" fill="#560BD8"/>
<path d="M24.9999 41.6667C26.105 41.6667 27.1648 41.2277 27.9462 40.4463C28.7276 39.6649 29.1666 38.6051 29.1666 37.5C29.1666 36.395 28.7276 35.3352 27.9462 34.5538C27.1648 33.7724 26.105 33.3334 24.9999 33.3334C23.8948 33.3334 22.835 33.7724 22.0536 34.5538C21.2722 35.3352 20.8333 36.395 20.8333 37.5C20.8333 38.6051 21.2722 39.6649 22.0536 40.4463C22.835 41.2277 23.8948 41.6667 24.9999 41.6667ZM24.9999 54.1667C26.105 54.1667 27.1648 53.7277 27.9462 52.9463C28.7276 52.1649 29.1666 51.1051 29.1666 50C29.1666 48.895 28.7276 47.8352 27.9462 47.0538C27.1648 46.2724 26.105 45.8334 24.9999 45.8334C23.8948 45.8334 22.835 46.2724 22.0536 47.0538C21.2722 47.8352 20.8333 48.895 20.8333 50C20.8333 51.1051 21.2722 52.1649 22.0536 52.9463C22.835 53.7277 23.8948 54.1667 24.9999 54.1667ZM37.4999 54.1667C38.605 54.1667 39.6648 53.7277 40.4462 52.9463C41.2276 52.1649 41.6666 51.1051 41.6666 50C41.6666 48.895 41.2276 47.8352 40.4462 47.0538C39.6648 46.2724 38.605 45.8334 37.4999 45.8334C36.3948 45.8334 35.335 46.2724 34.5536 47.0538C33.7722 47.8352 33.3333 48.895 33.3333 50C33.3333 51.1051 33.7722 52.1649 34.5536 52.9463C35.335 53.7277 36.3948 54.1667 37.4999 54.1667ZM37.4999 41.6667C38.605 41.6667 39.6648 41.2277 40.4462 40.4463C41.2276 39.6649 41.6666 38.6051 41.6666 37.5C41.6666 36.395 41.2276 35.3352 40.4462 34.5538C39.6648 33.7724 38.605 33.3334 37.4999 33.3334C36.3948 33.3334 35.335 33.7724 34.5536 34.5538C33.7722 35.3352 33.3333 36.395 33.3333 37.5C33.3333 38.6051 33.7722 39.6649 34.5536 40.4463C35.335 41.2277 36.3948 41.6667 37.4999 41.6667ZM49.9999 41.6667C51.105 41.6667 52.1648 41.2277 52.9462 40.4463C53.7276 39.6649 54.1666 38.6051 54.1666 37.5C54.1666 36.395 53.7276 35.3352 52.9462 34.5538C52.1648 33.7724 51.105 33.3334 49.9999 33.3334C48.8948 33.3334 47.835 33.7724 47.0536 34.5538C46.2722 35.3352 45.8333 36.395 45.8333 37.5C45.8333 38.6051 46.2722 39.6649 47.0536 40.4463C47.835 41.2277 48.8948 41.6667 49.9999 41.6667ZM49.9999 54.1667C51.105 54.1667 52.1648 53.7277 52.9462 52.9463C53.7276 52.1649 54.1666 51.1051 54.1666 50C54.1666 48.895 53.7276 47.8352 52.9462 47.0538C52.1648 46.2724 51.105 45.8334 49.9999 45.8334C48.8948 45.8334 47.835 46.2724 47.0536 47.0538C46.2722 47.8352 45.8333 48.895 45.8333 50C45.8333 51.1051 46.2722 52.1649 47.0536 52.9463C47.835 53.7277 48.8948 54.1667 49.9999 54.1667ZM62.4999 41.6667C63.605 41.6667 64.6648 41.2277 65.4462 40.4463C66.2276 39.6649 66.6666 38.6051 66.6666 37.5C66.6666 36.395 66.2276 35.3352 65.4462 34.5538C64.6648 33.7724 63.605 33.3334 62.4999 33.3334C61.3948 33.3334 60.335 33.7724 59.5536 34.5538C58.7722 35.3352 58.3333 36.395 58.3333 37.5C58.3333 38.6051 58.7722 39.6649 59.5536 40.4463C60.335 41.2277 61.3948 41.6667 62.4999 41.6667ZM62.4999 54.1667C63.605 54.1667 64.6648 53.7277 65.4462 52.9463C66.2276 52.1649 66.6666 51.1051 66.6666 50C66.6666 48.895 66.2276 47.8352 65.4462 47.0538C64.6648 46.2724 63.605 45.8334 62.4999 45.8334C61.3948 45.8334 60.335 46.2724 59.5536 47.0538C58.7722 47.8352 58.3333 48.895 58.3333 50C58.3333 51.1051 58.7722 52.1649 59.5536 52.9463C60.335 53.7277 61.3948 54.1667 62.4999 54.1667ZM74.9999 41.6667C76.105 41.6667 77.1648 41.2277 77.9462 40.4463C78.7276 39.6649 79.1666 38.6051 79.1666 37.5C79.1666 36.395 78.7276 35.3352 77.9462 34.5538C77.1648 33.7724 76.105 33.3334 74.9999 33.3334C73.8948 33.3334 72.835 33.7724 72.0536 34.5538C71.2722 35.3352 70.8333 36.395 70.8333 37.5C70.8333 38.6051 71.2722 39.6649 72.0536 40.4463C72.835 41.2277 73.8948 41.6667 74.9999 41.6667ZM74.9999 54.1667C76.105 54.1667 77.1648 53.7277 77.9462 52.9463C78.7276 52.1649 79.1666 51.1051 79.1666 50C79.1666 48.895 78.7276 47.8352 77.9462 47.0538C77.1648 46.2724 76.105 45.8334 74.9999 45.8334C73.8948 45.8334 72.835 46.2724 72.0536 47.0538C71.2722 47.8352 70.8333 48.895 70.8333 50C70.8333 51.1051 71.2722 52.1649 72.0536 52.9463C72.835 53.7277 73.8948 54.1667 74.9999 54.1667ZM73.9582 66.6667C73.9582 67.4955 73.629 68.2904 73.043 68.8764C72.4569 69.4625 71.6621 69.7917 70.8333 69.7917H29.1666C28.3378 69.7917 27.5429 69.4625 26.9569 68.8764C26.3708 68.2904 26.0416 67.4955 26.0416 66.6667C26.0416 65.8379 26.3708 65.0431 26.9569 64.457C27.5429 63.871 28.3378 63.5417 29.1666 63.5417H70.8333C71.6621 63.5417 72.4569 63.871 73.043 64.457C73.629 65.0431 73.9582 65.8379 73.9582 66.6667Z" fill="#560BD8"/>
</g>
<defs>
<clipPath id="clip0_1392_56">
<rect width="100" height="100" fill="white"/>
</clipPath>
</defs>
</svg>
